<svg xmlns="http://www.w3.org/2000/svg" viewBox="0 0 285 292" fill="none" stroke="black">
  <path d="M 152,28 151,29 148,29 147,30 145,30 144,31 142,31 140,33 139,33 138,34 137,34 135,36 134,36 124,46 124,47 122,49 122,50 120,52 120,53 119,54 119,55 118,56 118,57 117,58 117,59 116,60 116,61 115,62 115,65 114,66 114,69 113,70 113,77 112,78 112,83 110,85 108,85 107,86 105,86 104,87 102,87 101,88 99,88 98,89 96,89 95,90 94,90 93,91 91,91 90,92 88,92 87,93 86,93 85,94 84,94 83,95 82,95 81,96 80,96 79,97 78,97 77,98 76,98 75,99 74,99 73,100 72,100 71,101 70,101 68,103 67,103 66,104 65,104 63,106 62,106 60,108 59,108 56,111 55,111 45,121 45,122 44,123 44,124 43,125 43,126 42,127 42,128 41,129 41,131 40,132 40,144 41,145 41,146 42,147 42,148 43,149 43,150 50,157 51,157 53,159 54,159 55,160 56,160 57,161 58,161 59,162 61,162 62,163 65,163 66,164 68,164 69,165 75,165 76,166 82,166 85,169 85,173 82,176 82,177 79,180 79,181 76,184 76,185 74,187 74,188 72,190 72,191 69,194 69,195 67,197 67,198 65,200 65,201 64,202 64,203 62,205 62,206 60,208 60,209 59,210 59,211 57,213 57,214 56,215 56,216 55,217 55,218 53,220 53,221 52,222 52,223 51,224 51,225 50,226 50,227 49,228 49,229 48,230 48,231 47,232 47,233 46,234 46,235 45,236 45,237 44,238 44,239 43,240 43,241 42,242 42,244 41,245 41,246 40,247 40,249 39,250 39,252 38,253 38,255 37,256 37,264 38,265 38,267 42,271 43,271 44,272 46,272 47,273 52,273 53,274 122,274 123,273 126,273 127,272 128,272 129,271 130,271 134,267 134,266 136,264 136,263 138,261 138,260 140,258 140,257 141,256 141,255 143,253 143,252 145,250 145,249 147,247 147,246 149,244 149,243 150,242 150,241 152,239 152,238 154,236 154,235 156,233 156,232 158,230 158,229 159,228 160,228 163,231 163,232 165,234 165,235 167,237 167,238 169,240 169,241 171,243 171,244 173,246 173,247 175,249 175,250 176,251 176,252 178,254 178,255 180,257 180,258 182,260 182,261 183,262 183,263 185,265 185,266 191,272 192,272 193,273 197,273 198,274 201,274 202,273 206,273 207,274 267,274 268,273 273,273 274,272 276,272 278,270 279,270 281,268 281,267 282,266 282,264 283,263 284,263 284,259 283,258 283,257 282,256 282,253 281,252 281,251 280,250 280,248 279,247 279,246 278,245 278,243 277,242 277,241 276,240 276,239 275,238 275,237 274,236 274,235 273,234 273,233 272,232 272,230 271,229 271,228 270,227 270,226 269,225 269,224 267,222 267,221 266,220 266,219 265,218 265,217 263,215 263,214 262,213 262,212 261,211 261,210 259,208 259,207 257,205 257,204 255,202 255,201 254,200 254,199 252,197 252,196 250,194 250,193 248,191 248,190 245,187 245,186 242,183 242,182 240,180 240,179 237,176 237,175 234,172 234,170 235,169 235,168 237,166 242,166 243,165 251,165 252,164 255,164 256,163 258,163 259,162 260,162 261,161 263,161 264,160 265,160 266,159 267,159 269,157 270,157 277,150 277,149 278,148 278,147 279,146 279,143 280,142 280,133 279,132 279,130 278,129 278,127 277,126 277,125 276,124 276,123 274,121 274,120 266,112 265,112 262,109 261,109 258,106 257,106 256,105 255,105 253,103 252,103 251,102 250,102 248,100 247,100 246,99 245,99 244,98 243,98 242,97 241,97 240,96 239,96 238,95 237,95 236,94 235,94 234,93 232,93 231,92 230,92 229,91 227,91 226,90 224,90 223,89 222,89 221,88 219,88 218,87 216,87 215,86 213,86 212,85 210,85 208,83 208,82 207,81 207,72 206,71 206,68 205,67 205,64 204,63 204,61 203,60 203,59 202,58 202,56 201,55 201,54 199,52 199,51 198,50 198,49 195,46 195,45 187,37 186,37 184,35 183,35 181,33 180,33 179,32 178,32 177,31 175,31 174,30 172,30 171,29 168,29 167,28 Z" fill="black"/>
</svg>