<svg xmlns="http://www.w3.org/2000/svg" viewBox="0 0 18.73 16.00" width="18.73mm" height="16mm">
  <path d="M 53,403 L 59,403 Z M 53,32 L 52,33 L 49,33 L 48,34 L 47,34 L 46,35 L 45,35 L 41,39 L 41,40 L 39,42 L 39,44 L 38,45 L 38,48 L 37,49 L 37,54 L 36,55 L 36,160 L 37,161 L 37,165 L 38,166 L 38,168 L 39,169 L 39,170 L 41,172 L 41,173 L 44,176 L 45,176 L 48,179 L 49,179 L 50,180 L 51,180 L 53,182 L 54,182 L 56,184 L 57,184 L 59,186 L 60,186 L 62,188 L 63,188 L 64,189 L 65,189 L 67,191 L 68,191 L 69,192 L 70,192 L 72,194 L 73,194 L 75,196 L 76,196 L 78,198 L 79,198 L 81,200 L 82,200 L 84,202 L 85,202 L 87,204 L 88,204 L 90,206 L 91,206 L 93,208 L 94,208 L 96,210 L 97,210 L 98,211 L 99,211 L 101,213 L 102,213 L 105,216 L 105,217 L 101,221 L 100,221 L 99,222 L 98,222 L 96,224 L 95,224 L 93,226 L 92,226 L 90,228 L 89,228 L 87,230 L 86,230 L 84,232 L 83,232 L 81,234 L 80,234 L 78,236 L 77,236 L 76,237 L 75,237 L 73,239 L 72,239 L 70,241 L 69,241 L 67,243 L 66,243 L 65,244 L 64,244 L 62,246 L 61,246 L 59,248 L 58,248 L 56,250 L 55,250 L 54,251 L 53,251 L 50,254 L 49,254 L 48,255 L 47,255 L 39,263 L 39,265 L 38,266 L 38,267 L 37,268 L 37,273 L 36,274 L 36,282 L 37,283 L 37,284 L 36,285 L 36,378 L 37,379 L 37,385 L 38,386 L 38,388 L 39,389 L 39,391 L 41,393 L 41,394 L 46,399 L 48,399 L 49,400 L 51,400 L 52,401 L 61,401 L 62,400 L 66,400 L 67,399 L 69,399 L 70,398 L 71,398 L 72,397 L 74,397 L 75,396 L 76,396 L 77,395 L 79,395 L 80,394 L 81,394 L 82,393 L 83,393 L 84,392 L 86,392 L 87,391 L 88,391 L 89,390 L 90,390 L 91,389 L 92,389 L 93,388 L 95,388 L 96,387 L 97,387 L 98,386 L 99,386 L 100,385 L 101,385 L 102,384 L 103,384 L 104,383 L 105,383 L 106,382 L 107,382 L 109,380 L 110,380 L 111,379 L 112,379 L 113,378 L 114,378 L 115,377 L 116,377 L 117,376 L 118,376 L 120,374 L 121,374 L 122,373 L 123,373 L 124,372 L 125,372 L 127,370 L 128,370 L 129,369 L 130,369 L 132,367 L 133,367 L 134,366 L 135,366 L 137,364 L 138,364 L 140,362 L 141,362 L 143,360 L 144,360 L 145,359 L 146,359 L 148,357 L 149,357 L 151,355 L 152,355 L 154,353 L 155,353 L 157,351 L 158,351 L 160,349 L 161,349 L 164,346 L 165,346 L 167,344 L 168,344 L 171,341 L 172,341 L 175,338 L 176,338 L 179,335 L 180,335 L 183,332 L 184,332 L 187,329 L 188,329 L 189,328 L 192,328 L 193,329 L 194,329 L 197,332 L 197,333 L 198,334 L 198,341 L 199,342 L 199,352 L 200,353 L 200,356 L 201,357 L 201,359 L 202,360 L 202,362 L 203,363 L 203,365 L 204,366 L 204,368 L 205,369 L 205,370 L 206,371 L 206,372 L 207,373 L 207,374 L 208,375 L 208,376 L 209,377 L 209,378 L 211,380 L 211,381 L 214,384 L 214,385 L 219,390 L 220,390 L 223,393 L 224,393 L 225,394 L 227,394 L 228,395 L 230,395 L 231,396 L 234,396 L 235,397 L 246,397 L 247,396 L 250,396 L 251,395 L 253,395 L 254,394 L 255,394 L 256,393 L 257,393 L 258,392 L 260,392 L 262,390 L 263,390 L 265,388 L 266,388 L 273,381 L 274,381 L 275,380 L 275,379 L 280,374 L 280,373 L 283,370 L 283,369 L 286,366 L 286,365 L 288,363 L 288,362 L 289,361 L 289,360 L 291,358 L 291,357 L 293,355 L 293,354 L 294,353 L 294,352 L 295,351 L 295,350 L 296,349 L 296,348 L 298,346 L 298,345 L 299,344 L 299,343 L 300,342 L 300,341 L 301,340 L 301,339 L 302,338 L 302,337 L 303,336 L 303,335 L 304,334 L 304,333 L 305,332 L 305,331 L 306,330 L 306,328 L 307,327 L 307,326 L 308,325 L 308,324 L 309,323 L 309,321 L 310,320 L 310,318 L 311,317 L 311,316 L 312,315 L 312,313 L 313,312 L 313,311 L 314,310 L 314,308 L 315,307 L 315,305 L 316,304 L 316,302 L 317,301 L 317,299 L 318,298 L 318,296 L 319,295 L 319,293 L 320,292 L 320,291 L 322,289 L 323,289 L 324,288 L 331,288 L 332,287 L 339,287 L 340,286 L 344,286 L 345,285 L 348,285 L 349,284 L 351,284 L 352,283 L 354,283 L 355,282 L 357,282 L 358,281 L 359,281 L 360,280 L 362,280 L 363,279 L 364,279 L 365,278 L 366,278 L 368,276 L 369,276 L 370,275 L 371,275 L 373,273 L 374,273 L 376,271 L 377,271 L 381,267 L 382,267 L 385,264 L 385,263 L 392,256 L 392,255 L 394,253 L 394,252 L 396,250 L 396,249 L 397,248 L 397,247 L 398,246 L 398,245 L 399,244 L 399,243 L 400,242 L 400,241 L 401,240 L 401,238 L 402,237 L 402,235 L 403,234 L 403,232 L 404,231 L 404,227 L 405,226 L 405,206 L 404,205 L 404,202 L 403,201 L 403,198 L 402,197 L 402,195 L 401,194 L 401,193 L 400,192 L 400,190 L 399,189 L 399,188 L 398,187 L 398,186 L 396,184 L 396,183 L 394,181 L 394,180 L 392,178 L 392,177 L 379,164 L 378,164 L 375,161 L 374,161 L 372,159 L 371,159 L 369,157 L 368,157 L 367,156 L 366,156 L 365,155 L 364,155 L 363,154 L 362,154 L 361,153 L 360,153 L 359,152 L 358,152 L 357,151 L 355,151 L 354,150 L 353,150 L 352,149 L 349,149 L 348,148 L 345,148 L 344,147 L 341,147 L 340,146 L 331,146 L 330,145 L 323,145 L 322,144 L 321,144 L 320,143 L 320,142 L 319,141 L 319,139 L 318,138 L 318,135 L 317,134 L 317,132 L 316,131 L 316,129 L 315,128 L 315,127 L 314,126 L 314,124 L 313,123 L 313,121 L 312,120 L 312,118 L 311,117 L 311,116 L 310,115 L 310,113 L 309,112 L 309,111 L 308,110 L 308,108 L 307,107 L 307,106 L 306,105 L 306,103 L 305,102 L 305,101 L 304,100 L 304,99 L 303,98 L 303,97 L 302,96 L 302,95 L 301,94 L 301,93 L 300,92 L 300,91 L 299,90 L 299,89 L 297,87 L 297,86 L 296,85 L 296,84 L 295,83 L 295,82 L 294,81 L 294,80 L 292,78 L 292,77 L 291,76 L 291,75 L 289,73 L 289,72 L 287,70 L 287,69 L 285,67 L 285,66 L 283,64 L 283,63 L 280,60 L 280,59 L 266,45 L 265,45 L 264,44 L 263,44 L 261,42 L 260,42 L 259,41 L 258,41 L 257,40 L 255,40 L 254,39 L 253,39 L 252,38 L 250,38 L 249,37 L 244,37 L 243,36 L 235,36 L 234,37 L 231,37 L 230,38 L 228,38 L 227,39 L 226,39 L 225,40 L 224,40 L 223,41 L 222,41 L 217,46 L 216,46 L 215,47 L 215,48 L 211,52 L 211,53 L 210,54 L 210,55 L 208,57 L 208,58 L 207,59 L 207,60 L 206,61 L 206,62 L 205,63 L 205,65 L 204,66 L 204,67 L 203,68 L 203,70 L 202,71 L 202,73 L 201,74 L 201,77 L 200,78 L 200,82 L 199,83 L 199,88 L 198,89 L 198,99 L 197,100 L 197,101 L 193,105 L 189,105 L 188,104 L 187,104 L 184,101 L 183,101 L 180,98 L 179,98 L 176,95 L 175,95 L 172,92 L 171,92 L 168,89 L 167,89 L 165,87 L 164,87 L 162,85 L 161,85 L 159,83 L 158,83 L 156,81 L 155,81 L 152,78 L 151,78 L 149,76 L 148,76 L 146,74 L 145,74 L 144,73 L 143,73 L 141,71 L 140,71 L 138,69 L 137,69 L 136,68 L 135,68 L 133,66 L 132,66 L 131,65 L 130,65 L 128,63 L 127,63 L 126,62 L 125,62 L 123,60 L 122,60 L 121,59 L 120,59 L 119,58 L 118,58 L 116,56 L 115,56 L 114,55 L 113,55 L 112,54 L 111,54 L 110,53 L 109,53 L 108,52 L 107,52 L 106,51 L 105,51 L 103,49 L 102,49 L 101,48 L 99,48 L 98,47 L 97,47 L 96,46 L 95,46 L 94,45 L 93,45 L 92,44 L 91,44 L 90,43 L 89,43 L 88,42 L 87,42 L 86,41 L 85,41 L 84,40 L 82,40 L 81,39 L 80,39 L 79,38 L 77,38 L 76,37 L 75,37 L 74,36 L 72,36 L 71,35 L 69,35 L 68,34 L 66,34 L 65,33 L 62,33 L 61,32 Z" fill="currentColor" stroke="black" stroke-width="0.3"/>
</svg>